<svg id="Group_5" data-name="Group 5" xmlns="http://www.w3.org/2000/svg" width="194.475" height="125.796" viewBox="0 0 194.475 125.796">
  <defs>
    <style>
      .cls-1 {
        fill: #fff;
        fill-rule: evenodd;
      }
    </style>
  </defs>
  <path id="Path_9" data-name="Path 9" class="cls-1" d="M470.575,225.557a1.645,1.645,0,0,1-1.632-1.655,1.626,1.626,0,0,1,1.632-1.632h20.158a1.626,1.626,0,0,1,1.632,1.632,1.645,1.645,0,0,1-1.632,1.655Zm88.384,5.873-.046.045h0l-.045.045h0l-.022.023-.023.022h0l-.045.023v.022h-.023l-.023.046h-.023l-.022.022h-.023v.023h0l-.046.022h0v.023H558.6l-.023.022-.022.023h0l-.023.022h-.023v.023h-.022l-.023.022h0l-.046.023h0l-.022.022h0l-.023.023h-.023v.022h-.022l-.023.023h-.022V232h-.023v.022h-.046l-.022.045h-.023l-.023.023H558.1l-.023.022v.023h-.045v.022l-.022.023h-.046v.022l-.023.023h-.045l-.023.023h-.023v.023H557.8v.023h-.023l-.022.022h-.023l-.022.023h-.023l-.023.022h0l-.023.023h-.023l-.022.023h-.046v.023h-.045v.022h-.022l-.046.023h0l-.045.022h-.046l-.023.023H557.3l-.023.022-.022.023h-.045l-.023.023h-.023l-.045.023h0l1.836-1.179Zm-29.386,1.564v14.171a5.694,5.694,0,0,0,1.678,4.036h0a5.692,5.692,0,0,0,4.036,1.678H589.32a5.672,5.672,0,0,0,3.945-1.587l.091-.091a5.693,5.693,0,0,0,1.677-4.036V132.819a5.654,5.654,0,0,0-1.677-4.036v-.022a5.79,5.79,0,0,0-4.036-1.678H406.135l-.068.022h-.295l-.067.023a5.725,5.725,0,0,0-3.47,1.633l-.091.113a5.731,5.731,0,0,0-1.586,3.945v83.849l.022.182v10.43a5.61,5.61,0,0,0,1.678,4.036h0a5.689,5.689,0,0,0,4.035,1.678h54.94v8.322H440.986a1.64,1.64,0,0,0-1.632,1.632V251.2a1.625,1.625,0,0,0,1.632,1.632h79.359a1.625,1.625,0,0,0,1.632-1.632v-8.254a1.64,1.64,0,0,0-1.632-1.632H500.1v-8.322ZM406.067,130.371H555.355l.022.022h.113l.023.023h.068l.023.022h.09v.023h0l.137.045h.023a2.166,2.166,0,0,1,.906.59h.023l.023.023.023.023.022.023v.022l.046.023v.023l.023.022.022.023.023.023.022.022v.023h0l.023.023.023.022.022.045h.023v.045l.023.023.023.022v.023l.022.023.023.022h0v.023l.023.023.023.045v.022l.022.023h0v.023l.023.023v.045l.022.023h0v.022l.023.023h0v.023h0l.022.022v.045l.023.023h0v.023h0l.023.022v.046h0v.022h0l.023.023h0v.023l.023.045h0v.023h0v.023h0v.045h0l.022.023h0v.023h0l.023.023v.068h0v.045h0v.023h0v.068h0l.023.022h0v.046h0v.023h0v.023h0v.045h0v.023h0v.023h0v.045h0v82.216H403.846V132.819a2.452,2.452,0,0,1,.725-1.746v.023a2.3,2.3,0,0,1,1.5-.726Zm-2.221,87.93v8.979a2.437,2.437,0,0,0,2.448,2.449H555.355v-.023h.09l.045-.022h.069l.022-.023h.091l.022-.022h.069l.022-.023h.023l.023-.022h.045l.023-.023h.022l.023-.022h.068l.023-.023h0V229.5h.045l.023-.023h.046l.022-.022.045-.023h.023l.022-.023.023-.022h.023l.023-.023.022-.022h.023l.023-.023.023-.022h.022l.023-.023.022-.022h.023l.023-.023h0l.022-.022.023-.023.023-.023h.023l.022-.023.023-.023.023-.022v-.023l.067-.068a2.356,2.356,0,0,0,.727-1.723V218.3Zm38.772,31.268V244.58h76.094v4.988Zm54.213-16.575v8.322H464.5v-8.322ZM589.32,130.371H560.206v.022h.023v.046l.023.023h0l.022.045v.023h0l.023.045v.022l.023.023v.023l.023.022h0v.023l.022.023h0v.046l.023.022h0l.023.046v.022h0v.023l.023.023v.022h0v.023l.022.045h0v.022l.023.045h0v.045l.022.023h0v.045l.023.022h0v.046l.023.022v.068h0l.022.023v.045h0l.023.045v.023h0v.045l.023.022h0v.068l.023.023v.046h0v.023l.022.045h0v.068h0v.023l.023.023v.022h0v.068h0v.023l.023.045v.023h0v.068h0v.022l.022.045h0v.068h0v.068h0v.068h.023v.09h0v.068h0v.068h0v.068h0v.068h0v.091h0v22.946h18.615a1.644,1.644,0,0,1,0,3.287H560.751v64.757h8.865a1.626,1.626,0,0,1,1.632,1.633v14.625a1.64,1.64,0,0,1-1.632,1.633H554.991a1.655,1.655,0,0,1-1.632-1.633v-7.074h-20.52v14.171a2.478,2.478,0,0,0,2.449,2.449H589.32a2.506,2.506,0,0,0,1.677-.658l.068-.068a2.469,2.469,0,0,0,.7-1.723V132.819a2.4,2.4,0,0,0-2.449-2.449ZM556.646,238.413h11.337V227.076h-7.233v.2a5.613,5.613,0,0,1-1.677,4.036l-.023.045h0l-.023.023h0l-.023.023h0l-.045.022h0l-2.313,6.983Zm.431-5.782-.431,5.782v-5.646h.046l.022-.023h.045l.046-.023h0l.045-.023h.046l.023-.022h.045l.022-.023h.023l.023-.022h.045Z" transform="translate(-400.559 -127.083)"/>
</svg>
