<svg xmlns="http://www.w3.org/2000/svg" width="75.154" height="121.954" viewBox="0 0 75.154 121.954">
  <defs>
    <style>
      .cls-1 {
        fill: #fff;
        fill-rule: evenodd;
      }
    </style>
  </defs>
  <path id="Path_8" data-name="Path 8" class="cls-1" d="M52.532,161.289h58.021a8.541,8.541,0,0,1,6.05,2.516l.009.009a8.529,8.529,0,0,1,2.507,6.042V274.677a8.55,8.55,0,0,1-2.507,6.05H116.6a8.542,8.542,0,0,1-6.05,2.516H52.532a8.59,8.59,0,0,1-8.566-8.566V169.855a8.59,8.59,0,0,1,8.566-8.566ZM73.791,273.832H89.339a1.432,1.432,0,0,0,0-2.864H73.791a1.432,1.432,0,0,0,0,2.864ZM52.663,172.9a1.429,1.429,0,0,0-1.428,1.428V264.5a1.429,1.429,0,0,0,1.428,1.428h57.769a1.434,1.434,0,0,0,1.428-1.428V174.33a1.434,1.434,0,0,0-1.428-1.428ZM109,175.757H54.09v87.315H109V175.757Zm1.55-11.613H52.532a5.737,5.737,0,0,0-5.711,5.711V274.677a5.722,5.722,0,0,0,5.711,5.711h58.021a5.691,5.691,0,0,0,4.039-1.671h0a5.721,5.721,0,0,0,1.671-4.039V169.855a5.686,5.686,0,0,0-1.671-4.031v-.009A5.727,5.727,0,0,0,110.554,164.144Z" transform="translate(-43.966 -161.289)"/>
</svg>
