<svg id="Group_6" data-name="Group 6" xmlns="http://www.w3.org/2000/svg" width="187.884" height="120.503" viewBox="0 0 187.884 120.503">
  <defs>
    <style>
      .cls-1 {
        fill: #fff;
        fill-rule: evenodd;
      }
    </style>
  </defs>
  <path id="Path_7" data-name="Path 7" class="cls-1" d="M17.115,279.545H193.281a2.5,2.5,0,0,0,1.776-.745,2.467,2.467,0,0,0,.735-1.766v-3.6a2.491,2.491,0,0,0-.735-1.776l-.061-.061a2.506,2.506,0,0,0-1.715-.674H17.115a2.509,2.509,0,0,0-2.511,2.511v3.6a2.534,2.534,0,0,0,.735,1.776v-.01a2.518,2.518,0,0,0,1.776.745ZM30.253,162.391H180.144a5.89,5.89,0,0,1,5.869,5.869v99.312h7.268a5.837,5.837,0,0,1,4.032,1.623l.112.1a5.807,5.807,0,0,1,1.715,4.134v3.6a5.873,5.873,0,0,1-5.859,5.859H17.115a5.791,5.791,0,0,1-4.134-1.725h0a5.851,5.851,0,0,1-1.725-4.134v-3.6a5.833,5.833,0,0,1,1.725-4.134h0a5.852,5.852,0,0,1,4.134-1.725h7.278V168.26a5.866,5.866,0,0,1,1.715-4.144h0a5.857,5.857,0,0,1,4.144-1.725Zm149.891,3.358H30.253a2.508,2.508,0,0,0-1.776.735h0a2.515,2.515,0,0,0-.735,1.776v99.312H182.655V168.26a2.509,2.509,0,0,0-2.511-2.511ZM76.994,276.626a1.674,1.674,0,0,1,0-3.348h55.285a1.674,1.674,0,0,1,0,3.348ZM34.54,170.445a1.675,1.675,0,0,0-1.674,1.674v89.073a1.677,1.677,0,0,0,1.674,1.684H175.867a1.677,1.677,0,0,0,1.674-1.684V172.119a1.675,1.675,0,0,0-1.674-1.674Zm139.653,3.348H36.2v85.725H174.192Z" transform="translate(-11.256 -162.391)"/>
  <path id="Path_10" data-name="Path 10" class="cls-1" d="M112.912,260.817h40.174a3.078,3.078,0,0,0,2.206-.924h.011a3.12,3.12,0,0,0,.913-2.217v-27.71H109.772v27.71a3.129,3.129,0,0,0,.924,2.217,3.084,3.084,0,0,0,2.217.924ZM169.669,212.2v27.732a3.122,3.122,0,0,1-.924,2.206v.011a3.12,3.12,0,0,1-2.217.913h-8.748V219.98a4.712,4.712,0,0,0-4.695-4.705H123.225V212.2Zm-46.444-1.565h46.444V202.2a3.153,3.153,0,0,0-3.141-3.14H126.365a3.128,3.128,0,0,0-2.217.924h0a3.129,3.129,0,0,0-.924,2.217v8.433Zm-1.565,4.64V202.2a4.728,4.728,0,0,1,1.38-3.325h.011a4.7,4.7,0,0,1,3.314-1.38h40.163a4.712,4.712,0,0,1,4.705,4.705v37.729a4.683,4.683,0,0,1-1.38,3.315l-.011.011a4.672,4.672,0,0,1-3.314,1.369h-8.748v13.051A4.644,4.644,0,0,1,156.4,261h0a4.682,4.682,0,0,1-3.314,1.38H112.912a4.712,4.712,0,0,1-4.705-4.705v-37.7a4.692,4.692,0,0,1,1.369-3.314l.011-.011h0a4.728,4.728,0,0,1,3.325-1.38ZM156.216,228.4V219.98a3.154,3.154,0,0,0-3.13-3.141H112.912a3.129,3.129,0,0,0-2.217.924h-.011a3.12,3.12,0,0,0-.913,2.217V228.4Z" transform="translate(-45.895 -174.352)"/>
</svg>
