<svg xmlns="http://www.w3.org/2000/svg" viewBox="0 0 1920 340">
  <defs>
    <style>
      .cls-1 {
        fill: #1f2833;
      }

      .cls-2, .cls-3 {
        fill: #fff;
      }

      .cls-2 {
        font-size: 31px;
        font-family: AvenirNextCondensed-Regular, Avenir Next Condensed;
      }

      .cls-3 {
        fill-rule: evenodd;
      }
    </style>
  </defs>
  <g id="Group_8" data-name="Group 8" transform="translate(0 -695)">
    <path id="Path_12" data-name="Path 12" class="cls-1" d="M0,0S967.43,88,969.922,87.133,1920,0,1920,0V387H0Z" transform="translate(0 695)"/>
    <g id="Group_7" data-name="Group 7" transform="translate(43 32)">
      <text id="WEBSITES" class="cls-2" transform="translate(1120 988)"><tspan x="0" y="0">WEBSITES</tspan></text>
      <text id="MOBILE_APPS" data-name="MOBILE APPS" class="cls-2" transform="translate(849 988)"><tspan x="0" y="0">MOBILE APPS</tspan></text>
      <text id="DESKTOP_APPS" data-name="DESKTOP APPS" class="cls-2" transform="translate(581 988)"><tspan x="0" y="0">DESKTOP APPS</tspan></text>
      <path id="Path_8" data-name="Path 8" class="cls-3" d="M52.532,161.289h58.021a8.541,8.541,0,0,1,6.05,2.516l.009.009a8.529,8.529,0,0,1,2.507,6.042V274.677a8.55,8.55,0,0,1-2.507,6.05H116.6a8.542,8.542,0,0,1-6.05,2.516H52.532a8.59,8.59,0,0,1-8.566-8.566V169.855a8.59,8.59,0,0,1,8.566-8.566ZM73.791,273.832H89.339a1.432,1.432,0,0,0,0-2.864H73.791a1.432,1.432,0,0,0,0,2.864ZM52.663,172.9a1.429,1.429,0,0,0-1.428,1.428V264.5a1.429,1.429,0,0,0,1.428,1.428h57.769a1.434,1.434,0,0,0,1.428-1.428V174.33a1.434,1.434,0,0,0-1.428-1.428ZM109,175.757H54.09v87.315H109V175.757Zm1.55-11.613H52.532a5.737,5.737,0,0,0-5.711,5.711V274.677a5.722,5.722,0,0,0,5.711,5.711h58.021a5.691,5.691,0,0,0,4.039-1.671h0a5.721,5.721,0,0,0,1.671-4.039V169.855a5.686,5.686,0,0,0-1.671-4.031v-.009A5.727,5.727,0,0,0,110.554,164.144Z" transform="translate(841.826 641.272)"/>
      <g id="Group_5" data-name="Group 5" transform="translate(568 799)">
        <path id="Path_9" data-name="Path 9" class="cls-3" d="M470.575,225.557a1.645,1.645,0,0,1-1.632-1.655,1.626,1.626,0,0,1,1.632-1.632h20.158a1.626,1.626,0,0,1,1.632,1.632,1.645,1.645,0,0,1-1.632,1.655Zm88.384,5.873-.046.045h0l-.045.045h0l-.022.023-.023.022h0l-.045.023v.022h-.023l-.023.046h-.023l-.022.022h-.023v.023h0l-.046.022h0v.023H558.6l-.023.022-.022.023h0l-.023.022h-.023v.023h-.022l-.023.022h0l-.046.023h0l-.022.022h0l-.023.023h-.023v.022h-.022l-.023.023h-.022V232h-.023v.022h-.046l-.022.045h-.023l-.023.023H558.1l-.023.022v.023h-.045v.022l-.022.023h-.046v.022l-.023.023h-.045l-.023.023h-.023v.023H557.8v.023h-.023l-.022.022h-.023l-.022.023h-.023l-.023.022h0l-.023.023h-.023l-.022.023h-.046v.023h-.045v.022h-.022l-.046.023h0l-.045.022h-.046l-.023.023H557.3l-.023.022-.022.023h-.045l-.023.023h-.023l-.045.023h0l1.836-1.179Zm-29.386,1.564v14.171a5.694,5.694,0,0,0,1.678,4.036h0a5.692,5.692,0,0,0,4.036,1.678H589.32a5.672,5.672,0,0,0,3.945-1.587l.091-.091a5.693,5.693,0,0,0,1.677-4.036V132.819a5.654,5.654,0,0,0-1.677-4.036v-.022a5.79,5.79,0,0,0-4.036-1.678H406.135l-.068.022h-.295l-.067.023a5.725,5.725,0,0,0-3.47,1.633l-.091.113a5.731,5.731,0,0,0-1.586,3.945v83.849l.022.182v10.43a5.61,5.61,0,0,0,1.678,4.036h0a5.689,5.689,0,0,0,4.035,1.678h54.94v8.322H440.986a1.64,1.64,0,0,0-1.632,1.632V251.2a1.625,1.625,0,0,0,1.632,1.632h79.359a1.625,1.625,0,0,0,1.632-1.632v-8.254a1.64,1.64,0,0,0-1.632-1.632H500.1v-8.322ZM406.067,130.371H555.355l.022.022h.113l.023.023h.068l.023.022h.09v.023h0l.137.045h.023a2.166,2.166,0,0,1,.906.59h.023l.023.023.023.023.022.023v.022l.046.023v.023l.023.022.022.023.023.023.022.022v.023h0l.023.023.023.022.022.045h.023v.045l.023.023.023.022v.023l.022.023.023.022h0v.023l.023.023.023.045v.022l.022.023h0v.023l.023.023v.045l.022.023h0v.022l.023.023h0v.023h0l.022.022v.045l.023.023h0v.023h0l.023.022v.046h0v.022h0l.023.023h0v.023l.023.045h0v.023h0v.023h0v.045h0l.022.023h0v.023h0l.023.023v.068h0v.045h0v.023h0v.068h0l.023.022h0v.046h0v.023h0v.023h0v.045h0v.023h0v.023h0v.045h0v82.216H403.846V132.819a2.452,2.452,0,0,1,.725-1.746v.023a2.3,2.3,0,0,1,1.5-.726Zm-2.221,87.93v8.979a2.437,2.437,0,0,0,2.448,2.449H555.355v-.023h.09l.045-.022h.069l.022-.023h.091l.022-.022h.069l.022-.023h.023l.023-.022h.045l.023-.023h.022l.023-.022h.068l.023-.023h0V229.5h.045l.023-.023h.046l.022-.022.045-.023h.023l.022-.023.023-.022h.023l.023-.023.022-.022h.023l.023-.023.023-.022h.022l.023-.023.022-.022h.023l.023-.023h0l.022-.022.023-.023.023-.023h.023l.022-.023.023-.023.023-.022v-.023l.067-.068a2.356,2.356,0,0,0,.727-1.723V218.3Zm38.772,31.268V244.58h76.094v4.988Zm54.213-16.575v8.322H464.5v-8.322ZM589.32,130.371H560.206v.022h.023v.046l.023.023h0l.022.045v.023h0l.023.045v.022l.023.023v.023l.023.022h0v.023l.022.023h0v.046l.023.022h0l.023.046v.022h0v.023l.023.023v.022h0v.023l.022.045h0v.022l.023.045h0v.045l.022.023h0v.045l.023.022h0v.046l.023.022v.068h0l.022.023v.045h0l.023.045v.023h0v.045l.023.022h0v.068l.023.023v.046h0v.023l.022.045h0v.068h0v.023l.023.023v.022h0v.068h0v.023l.023.045v.023h0v.068h0v.022l.022.045h0v.068h0v.068h0v.068h.023v.09h0v.068h0v.068h0v.068h0v.068h0v.091h0v22.946h18.615a1.644,1.644,0,0,1,0,3.287H560.751v64.757h8.865a1.626,1.626,0,0,1,1.632,1.633v14.625a1.64,1.64,0,0,1-1.632,1.633H554.991a1.655,1.655,0,0,1-1.632-1.633v-7.074h-20.52v14.171a2.478,2.478,0,0,0,2.449,2.449H589.32a2.506,2.506,0,0,0,1.677-.658l.068-.068a2.469,2.469,0,0,0,.7-1.723V132.819a2.4,2.4,0,0,0-2.449-2.449ZM556.646,238.413h11.337V227.076h-7.233v.2a5.613,5.613,0,0,1-1.677,4.036l-.023.045h0l-.023.023h0l-.023.023h0l-.045.022h0l-2.313,6.983Zm.431-5.782-.431,5.782v-5.646h.046l.022-.023h.045l.046-.023h0l.045-.023h.046l.023-.022h.045l.022-.023h.023l.023-.022h.045Z" transform="translate(-400.559 -127.083)"/>
      </g>
      <g id="Group_6" data-name="Group 6" transform="translate(1078.069 804.341)">
        <path id="Path_7" data-name="Path 7" class="cls-3" d="M17.115,279.545H193.281a2.5,2.5,0,0,0,1.776-.745,2.467,2.467,0,0,0,.735-1.766v-3.6a2.491,2.491,0,0,0-.735-1.776l-.061-.061a2.506,2.506,0,0,0-1.715-.674H17.115a2.509,2.509,0,0,0-2.511,2.511v3.6a2.534,2.534,0,0,0,.735,1.776v-.01a2.518,2.518,0,0,0,1.776.745ZM30.253,162.391H180.144a5.89,5.89,0,0,1,5.869,5.869v99.312h7.268a5.837,5.837,0,0,1,4.032,1.623l.112.1a5.807,5.807,0,0,1,1.715,4.134v3.6a5.873,5.873,0,0,1-5.859,5.859H17.115a5.791,5.791,0,0,1-4.134-1.725h0a5.851,5.851,0,0,1-1.725-4.134v-3.6a5.833,5.833,0,0,1,1.725-4.134h0a5.852,5.852,0,0,1,4.134-1.725h7.278V168.26a5.866,5.866,0,0,1,1.715-4.144h0a5.857,5.857,0,0,1,4.144-1.725Zm149.891,3.358H30.253a2.508,2.508,0,0,0-1.776.735h0a2.515,2.515,0,0,0-.735,1.776v99.312H182.655V168.26a2.509,2.509,0,0,0-2.511-2.511ZM76.994,276.626a1.674,1.674,0,0,1,0-3.348h55.285a1.674,1.674,0,0,1,0,3.348ZM34.54,170.445a1.675,1.675,0,0,0-1.674,1.674v89.073a1.677,1.677,0,0,0,1.674,1.684H175.867a1.677,1.677,0,0,0,1.674-1.684V172.119a1.675,1.675,0,0,0-1.674-1.674Zm139.653,3.348H36.2v85.725H174.192Z" transform="translate(-11.256 -162.391)"/>
        <path id="Path_10" data-name="Path 10" class="cls-3" d="M112.912,260.817h40.174a3.078,3.078,0,0,0,2.206-.924h.011a3.12,3.12,0,0,0,.913-2.217v-27.71H109.772v27.71a3.129,3.129,0,0,0,.924,2.217,3.084,3.084,0,0,0,2.217.924ZM169.669,212.2v27.732a3.122,3.122,0,0,1-.924,2.206v.011a3.12,3.12,0,0,1-2.217.913h-8.748V219.98a4.712,4.712,0,0,0-4.695-4.705H123.225V212.2Zm-46.444-1.565h46.444V202.2a3.153,3.153,0,0,0-3.141-3.14H126.365a3.128,3.128,0,0,0-2.217.924h0a3.129,3.129,0,0,0-.924,2.217v8.433Zm-1.565,4.64V202.2a4.728,4.728,0,0,1,1.38-3.325h.011a4.7,4.7,0,0,1,3.314-1.38h40.163a4.712,4.712,0,0,1,4.705,4.705v37.729a4.683,4.683,0,0,1-1.38,3.315l-.011.011a4.672,4.672,0,0,1-3.314,1.369h-8.748v13.051A4.644,4.644,0,0,1,156.4,261h0a4.682,4.682,0,0,1-3.314,1.38H112.912a4.712,4.712,0,0,1-4.705-4.705v-37.7a4.692,4.692,0,0,1,1.369-3.314l.011-.011h0a4.728,4.728,0,0,1,3.325-1.38ZM156.216,228.4V219.98a3.154,3.154,0,0,0-3.13-3.141H112.912a3.129,3.129,0,0,0-2.217.924h-.011a3.12,3.12,0,0,0-.913,2.217V228.4Z" transform="translate(-45.895 -174.352)"/>
      </g>
    </g>
  </g>
</svg>
